:SAMPLES-PER-SECOND 24
:FULLY-SPECIFIED
:DEGREES
130
root  10.9169 38.2183 20.4355 15.894 1.51602 6.4787
RightUpLeg  -0.664177 1.7853 -10.4698
RightLeg  12.2195 -3.2047 -2.46385
RightFoot  -23.357 0.203349 3.42974
RightToes  -1.74623e-010 0 -2.59999e-017
Spine  12.092 5.88352 -2.59462
Spine1  18.9352 11.3969 -14.7402
HEad  -4.73635 -26.0527 16.5668
LeftShoulder1  2.53245 -3.82753 -28.4848
LeftArm  4.50499 9.85315 -38.506
LeftForeArm  124.059 -74.8888 -135.955
LeftHand  0.488173 12.2978 8.95476
RightShoulder  3.48988 6.10965 30.3993
RightArm  14.695 15.8885 46.9454
RightForeArm  16.3704 50.6819 12.4736
RightHand  -1.29077 6.73662 -12.6099
LeftUpLeg  -46.3365 -11.3774 12.4289
LeftLeg  20.4463 -1.65893 -0.0303659
LeftFoot  8.63258 1.71936 -9.92757
LeftToes  -6.27559e-011 -2.10356e-011 8.24929e-012
131
root  12.4446 37.0227 22.2868 9.4082 -9.25131 1.16809
RightUpLeg  4.22463 7.75042 -10.3153
RightLeg  17.1278 0.433777 -0.407848
RightFoot  -27.0887 0.577242 5.50211
RightToes  -1.74623e-010 0 -2.59999e-017
Spine  10.5467 6.57213 -0.0384707
Spine1  19.8623 12.574 -15.3111
HEad  -7.01582 -33.7525 18.8815
LeftShoulder1  2.55381 -3.80582 -28.8894
LeftArm  3.82401 13.5514 -38.2476
LeftForeArm  126.38 -74.7313 -136.873
LeftHand  0.506383 11.1612 10.9188
RightShoulder  3.44672 6.07106 30.0878
RightArm  25.3576 14.028 51.8379
RightForeArm  15.9419 52.3354 13.3366
RightHand  -0.502326 5.72038 -5.54853
LeftUpLeg  -39.3656 -13.399 23.0034
LeftLeg  16.2481 0.912998 1.3366
LeftFoot  12.8311 1.97549 -9.3241
LeftToes  -6.27559e-011 -2.10356e-011 8.24929e-012
132
root  13.9817 35.6949 24.0149 4.68219 -20.2594 -1.25183
RightUpLeg  4.60341 10.8475 -13.5876
RightLeg  25.7079 4.32642 2.12383
RightFoot  -30.4735 1.25343 8.62173
RightToes  -1.74623e-010 0 -2.59999e-017
Spine  9.71369 6.24423 -2.38015
Spine1  18.9666 10.744 -12.5796
HEad  -9.81428 -42.0558 20.6579
LeftShoulder1  2.64139 -3.93957 -29.4475
LeftArm  3.95699 18.3628 -37.621
LeftForeArm  127.291 -74.2966 -138.343
LeftHand  0.553482 10.6712 12.8117
RightShoulder  3.31899 5.87286 29.4779
RightArm  33.5576 11.3097 53.1737
RightForeArm  15.807 53.8042 14.1455
RightHand  0.00198912 5.43821 -0.28884
LeftUpLeg  -33.3344 -7.34622 24.635
LeftLeg  24.4363 -2.81357 -1.03736
LeftFoot  4.93338 3.1089 -22.2507
LeftToes  -6.27559e-011 -2.10356e-011 8.24929e-012
133
root  15.3048 34.6412 25.4551 0.861755 -27.3981 -0.646851
RightUpLeg  2.34281 13.5001 -17.9056
RightLeg  35.5486 3.36071 2.32976
RightFoot  -30.6826 1.85685 12.0877
RightToes  -1.74623e-010 0 -2.59999e-017
Spine  9.22129 4.71117 -10.2736
Spine1  18.365 5.5878 -5.17175
HEad  -14.5156 -49.5995 24.4582
LeftShoulder1  2.7965 -4.36075 -29.5255
LeftArm  5.96014 18.1167 -35.2476
LeftForeArm  116.666 -76.1268 -130.088
LeftHand  0.517483 10.2421 13.0461
RightShoulder  3.49382 5.95007 31.0646
RightArm  35.7676 11.1376 49.7537
RightForeArm  17.2748 54.7356 14.552
RightHand  -0.0158834 4.71243 -0.47676
LeftUpLeg  -31.1557 -0.331165 21.5824
LeftLeg  37.4203 -6.55817 -4.97907
LeftFoot  -6.16113 1.29055 -27.2431
LeftToes  -6.27559e-011 -2.10356e-011 8.24929e-012
134
root  16.3086 34.3071 26.4514 -1.36932 -31.9019 -0.480103
RightUpLeg  -0.862519 12.5373 -19.6756
RightLeg  43.6588 -2.59923 -2.99213
RightFoot  -25.4173 1.19528 10.8447
RightToes  -1.74623e-010 0 -2.59999e-017
Spine  9.24207 3.0134 -17.194
Spine1  19.2214 0.454216 2.06362
HEad  -20.2205 -53.9684 29.232
LeftShoulder1  2.76119 -4.8705 -26.8783
LeftArm  9.09664 12.8795 -34.13
LeftForeArm  84.6799 -79.1718 -97.8106
LeftHand  0.423554 9.5664 12.5393
RightShoulder  3.98891 6.28207 34.8692
RightArm  31.919 13.0665 44.3833
RightForeArm  19.7 53.404 13.5967
RightHand  -0.543549 2.5552 -8.1861
LeftUpLeg  -30.1284 3.24421 19.6399
LeftLeg  45.3858 -6.6357 -6.70417
LeftFoot  -11.5209 0.0241183 -23.3135
LeftToes  -6.27559e-011 -2.10356e-011 8.24929e-012
135
root  17.0284 34.6367 27.1532 -1.71039 -37.1519 -2.02283
RightUpLeg  -4.80637 6.48599 -18.4037
RightLeg  49.1945 -10.8805 -13.5074
RightFoot  -17.4667 0.0496267 2.56437
RightToes  -1.74623e-010 0 -2.59999e-017
Spine  9.61071 2.06718 -19.8642
Spine1  19.2166 -2.54744 6.4249
HEad  -22.9254 -54.4754 30.4281
LeftShoulder1  2.57808 -5.21315 -23.3219
LeftArm  12.2945 8.2435 -34.3428
LeftForeArm  50.9497 -77.9318 -60.37
LeftHand  0.346741 9.08544 11.774
RightShoulder  4.21693 6.42552 36.5475
RightArm  24.7521 12.3546 43.0024
RightForeArm  23.2703 50.103 11.6525
RightHand  -0.763547 -1.06024 -20.6364
LeftUpLeg  -26.6154 5.4026 20.0245
LeftLeg  46.1133 -5.11866 -5.23504
LeftFoot  -13.0088 -0.237798 -21.2167
LeftToes  -6.27559e-011 -2.10356e-011 8.24929e-012
136
root  17.4816 35.3305 27.7624 -1.27698 -43.3236 -3.28931
RightUpLeg  -8.13646 -2.15679 -16.4937
RightLeg  50.3988 -16.8712 -20.8746
RightFoot  -13.2462 -0.173678 -4.82383
RightToes  -1.74623e-010 0 -2.59999e-017
Spine  9.40622 1.43583 -20.7095
Spine1  18.0521 -3.92021 8.60458
HEad  -22.9655 -52.9166 29.6026
LeftShoulder1  2.4327 -5.18222 -21.6618
LeftArm  14.305 6.65731 -33.4708
LeftForeArm  43.4444 -76.4884 -49.7626
LeftHand  0.276561 8.69265 10.7339
RightShoulder  4.07349 6.30267 35.6321
RightArm  17.8915 8.53064 43.8997
RightForeArm  25.6323 49.4216 11.1525
RightHand  -0.329074 -4.05204 -28.2937
LeftUpLeg  -21.3434 6.59337 20.2011
LeftLeg  43.0551 -2.18045 -1.75078
LeftFoot  -13.9464 -0.37862 -20.1676
LeftToes  -6.27559e-011 -2.10356e-011 8.24929e-012
